<svg xmlns="http://www.w3.org/2000/svg" width="161.687" height="96.969" viewBox="0 0 161.687 96.969">
  <defs>
    <style>
      .cls-1 {
        fill: #333;
        fill-rule: evenodd;
      }
    </style>
  </defs>
  <path id="HtA_" data-name="HtA " class="cls-1" d="M319.458,173.718c-0.043-.477-0.109-0.954-0.2-1.432a2.424,2.424,0,0,0-2.083-.977,5.929,5.929,0,0,0-1.986.358q-1.01.36-1.986,0.619a12.034,12.034,0,0,1-1.953.228q-0.976.033-1.953,0.032-1.5,0-3.19-.032a10.229,10.229,0,0,0-3.19.423q0.129-.521-0.228-0.553a0.539,0.539,0,0,1-.488-0.358,9.1,9.1,0,0,0,.455-2.409l0.131-2.539q0.063-1.3.2-2.507a9.252,9.252,0,0,1,.586-2.376,5.666,5.666,0,0,1,.195-2.246,8.372,8.372,0,0,0,.326-2.311,4.973,4.973,0,0,0-.2-1.3q0.52-2.082.944-4.166a38.961,38.961,0,0,0,.619-4.232q0.065-.977.1-2.181t0.13-2.376a15.534,15.534,0,0,1,.358-2.279,6.43,6.43,0,0,1,.846-2.018q-0.13-.649-0.26-1.27a6.382,6.382,0,0,1-.13-1.334,14.548,14.548,0,0,1,.1-1.726,14.5,14.5,0,0,0,.1-1.725,13.224,13.224,0,0,0-.326-2.8,3.917,3.917,0,0,0-1.464-1.107,4.528,4.528,0,0,0-1.856-.391,3.092,3.092,0,0,0-2.7,1.14,4.747,4.747,0,0,0-.814,2.832,25.161,25.161,0,0,0,.131,2.539,13.123,13.123,0,0,0,.455,2.409,1.4,1.4,0,0,0-.716,1.237c0,0.39-.011.727-0.032,1.009a7.721,7.721,0,0,1-.163,1.009,0.081,0.081,0,0,0,0,.13,2.011,2.011,0,0,0,.195.911,2.787,2.787,0,0,1,.261.847,2.85,2.85,0,0,0-.521,1.139,7.918,7.918,0,0,0-.163,1.27q-0.033.651-.1,1.3a3.185,3.185,0,0,1-.39,1.237,0.15,0.15,0,0,0-.163-0.033,0.152,0.152,0,0,0-.1.163,0.422,0.422,0,0,0,.358.325,0.47,0.47,0,0,1,.359.456,1.883,1.883,0,0,1-.163.716c-0.109.261-.207,0.521-0.293,0.782a17,17,0,0,0-.521,2.148l-0.391,2.214q-0.326,2.148-.521,4.329t-0.455,4.329q-0.261,2.15-.619,4.33a33.828,33.828,0,0,1-1.009,4.329,2.959,2.959,0,0,1,.195,1.042,3.668,3.668,0,0,1-.455,1.758q-5.925.912-11.784,2.148a98.851,98.851,0,0,1-11.784,1.758,2.13,2.13,0,0,1-.13-0.651,2.879,2.879,0,0,1,.163-0.977,4.724,4.724,0,0,0,.227-0.911,17.647,17.647,0,0,0,.033-2.832,10.721,10.721,0,0,1,.163-2.767,3.041,3.041,0,0,1,.358-0.814,3.015,3.015,0,0,0,.358-0.879,13.62,13.62,0,0,0,.358-2.864q0.031-1.5.1-3a9.409,9.409,0,0,1,.325-1.856,15.167,15.167,0,0,0,.391-1.855,13.634,13.634,0,0,0,.1-2.214,5.257,5.257,0,0,1,.359-2.213,25.947,25.947,0,0,1,.195-4.883,35.919,35.919,0,0,0,.325-4.818,14.067,14.067,0,0,0-.26-2.864,5.373,5.373,0,0,0,.846-2.865,4.578,4.578,0,0,0-1.334-3.32,4.2,4.2,0,0,0-3.288-1.3,3.913,3.913,0,0,0-1.009.976,2.924,2.924,0,0,1-1.074.912,7.626,7.626,0,0,1-.033,1.562,12.614,12.614,0,0,0-.1,1.563,5.74,5.74,0,0,0,.391,2.018,14.555,14.555,0,0,0-.781,4.753,10.243,10.243,0,0,0,.521,3.385,29.89,29.89,0,0,0-1.01,4.069q-0.358,2.05-.618,4.134l-0.065.13a0.536,0.536,0,0,0,.26.489,0.54,0.54,0,0,1,.261.488v0.26q0,1.173-.1,2.279a14.07,14.07,0,0,1-.423,2.344q-0.195.781-.456,1.692t-0.391,1.628a6.5,6.5,0,0,0-.065.912v0.911q-0.13,1.5-.423,3.125a7.857,7.857,0,0,1-1.2,3,7.689,7.689,0,0,1-.033,2.116q-0.163,1.01-.423,2.05c-0.434.088-.869,0.2-1.3,0.326a4.522,4.522,0,0,1-1.3.195,2.193,2.193,0,0,1-1.107-.26,1.044,1.044,0,0,1-.781,1.042q-0.717.195-1.3,0.39a5.215,5.215,0,0,0-.2,1.367,6.254,6.254,0,0,0,.521,2.507,9.538,9.538,0,0,0,1.3,2.181,4.147,4.147,0,0,0,1.465.13,1.625,1.625,0,0,1,1.335.521q-0.132,2.735-.326,5.306t-0.195,5.241q0,1.431.065,2.8t0.195,2.8a7.562,7.562,0,0,1,.782,1.432q0.324,0.781.618,1.595t0.586,1.563a3.031,3.031,0,0,0,.814,1.2,1.607,1.607,0,0,0,.488.325c0.2,0.087.38,0.163,0.554,0.228a0.894,0.894,0,0,1,.423.326,1.046,1.046,0,0,1,.163.618q0.977-.064,1.92-0.065t1.888-.065a17.683,17.683,0,0,0,1.856-.228,6.776,6.776,0,0,0,1.823-.618,1.372,1.372,0,0,1-.033-0.781,0.386,0.386,0,0,1,.293-0.228,2.437,2.437,0,0,1,.423-0.033,1.108,1.108,0,0,0,.488-0.13,4.929,4.929,0,0,1,.651-1.921,7.647,7.647,0,0,0,.782-1.79,7.2,7.2,0,0,1-2.214-.749,4.649,4.649,0,0,0-2.213-.553,5.471,5.471,0,0,0-1.693.325,4.09,4.09,0,0,1-1.367-1.367,1.173,1.173,0,0,0,.195-0.716,1.621,1.621,0,0,0-.293-0.944,2.092,2.092,0,0,1-.358-0.944,9.769,9.769,0,0,1-.13-1.628v-1.562a51.9,51.9,0,0,1,.26-5.241,50.9,50.9,0,0,1,.781-5.111q2.149-.519,4.3-1.2t4.33-1.27q2.18-.585,4.394-1.009a23.611,23.611,0,0,1,4.427-.423,3.989,3.989,0,0,1,1.661-1.009,6.444,6.444,0,0,1,1.92-.293h0.586a3.062,3.062,0,0,1,.586.065l0.977-.456a2.209,2.209,0,0,1,1.106-.26,1.127,1.127,0,0,1,.456.065L294,183.223a17.1,17.1,0,0,0-.131,2.149,7.366,7.366,0,0,0,.131,1.4,4.047,4.047,0,0,0,.52,1.334,4.568,4.568,0,0,0-.651,1.726,12.166,12.166,0,0,0-.13,1.79q0,0.846.065,1.725t0.065,1.791a9.7,9.7,0,0,1-.26,2.343q0.325,1.822.716,3.548a16.281,16.281,0,0,1,.391,3.614,7.623,7.623,0,0,1,1.107,3.092q0.258,1.789.585,3.288a2.829,2.829,0,0,1,1.075,1.237,4.022,4.022,0,0,1,.358,1.693,3.559,3.559,0,0,1-.065.781,1.933,1.933,0,0,1,1.757.651,4.971,4.971,0,0,1,1.042,1.693,1.352,1.352,0,0,1,.749.065,2.832,2.832,0,0,1,.553.325,4.582,4.582,0,0,1,.488.423,1.637,1.637,0,0,0,.554.359,3.975,3.975,0,0,1,.976-0.131,4.579,4.579,0,0,1,1.237.163,4.624,4.624,0,0,0,1.237.163,2.709,2.709,0,0,0,1.595-1.367,4.592,4.592,0,0,0,.489-2.084,5.162,5.162,0,0,0-.2-1.367q-0.717-.522-1.3-0.976a1.706,1.706,0,0,1-.586-1.433v-0.39c-0.3-.088-0.6-0.163-0.879-0.228a4.212,4.212,0,0,0-.944-0.1,5.643,5.643,0,0,1-.944-1.432,13.147,13.147,0,0,1-.618-1.628q-0.261-.846-0.521-1.66a8.064,8.064,0,0,0-.716-1.595q-0.066-1.367-.26-3.027a12.685,12.685,0,0,0-.717-3.028q0.13-4.491.163-8.951a73.268,73.268,0,0,1,.619-8.952,5.964,5.964,0,0,1,2.246-1.172,21.728,21.728,0,0,1,2.832-.619q1.5-.226,3-0.325t2.669-.228a7.428,7.428,0,0,0,1.269.716,4.424,4.424,0,0,0,1.53.195,4.49,4.49,0,0,0,2.605-.716A5.641,5.641,0,0,0,319.458,176a1.242,1.242,0,0,0,.065-0.391v-0.455Q319.523,174.434,319.458,173.718Zm55.469-17.448c-0.26,0-.553.012-0.879,0.033a0.919,0.919,0,0,1-.749-0.228,4.536,4.536,0,0,0-.618-2.051,2,2,0,0,0-1.725-1.009l-0.456.716a2.7,2.7,0,0,1-1.2.489q-0.816.162-1.758,0.26t-1.791.163a6.986,6.986,0,0,0-1.3.195,0.653,0.653,0,0,0-.618.553,0.425,0.425,0,0,1-.488.424,2.336,2.336,0,0,1-.391-0.033,2.9,2.9,0,0,0-.456-0.032,6.07,6.07,0,0,0-2.148.39,6.063,6.063,0,0,1-2.149.391,3.164,3.164,0,0,1-1.3-.261,0.8,0.8,0,0,1-.228.684,1.561,1.561,0,0,1-.683.228q-1.3.2-2.572,0.293t-2.571.228q-2.734.325-5.306,0.781t-5.176.846a9.122,9.122,0,0,0-1.042-.2,8.486,8.486,0,0,0-1.042-.065,18.245,18.245,0,0,0-3.938.423,17.9,17.9,0,0,1-3.874.423c-0.3,0-.6-0.01-0.879-0.032s-0.576-.054-0.879-0.1a16.524,16.524,0,0,1-3.157.846q-1.6.261-3.223,0.456t-3.19.521a15.822,15.822,0,0,0-3.06.976,1.561,1.561,0,0,1-.619,1.237,1.278,1.278,0,0,0-.553,1.107,1.19,1.19,0,0,0,.391.749,1.526,1.526,0,0,1,.39,1.074,2.055,2.055,0,0,1-.13.521q0.781,0.522,1.335.944a2.581,2.581,0,0,0,1.6.423c0.173,0,.531-0.021,1.074-0.065s1.107-.1,1.693-0.163,1.117-.14,1.595-0.228a2.914,2.914,0,0,0,.911-0.26,0.477,0.477,0,0,0,.293-0.293c0.022-.108.163-0.163,0.423-0.163a3.344,3.344,0,0,1,.912.13,3.483,3.483,0,0,0,.976.131,2.068,2.068,0,0,0,1.14-.423,2.644,2.644,0,0,1,1.53-.424,3.573,3.573,0,0,1,.781.131,0.883,0.883,0,0,0,.293.52c0.151,0.131.293,0.261,0.423,0.391q0.065,0.717.163,1.465a2.7,2.7,0,0,0,.553,1.334q0.065,1.89.163,3.679t0.1,3.613q0,0.912-.066,1.856t-0.195,1.855a8.83,8.83,0,0,1,.586,3.516,13.381,13.381,0,0,0,.326,3.515,6.058,6.058,0,0,0,.618,1.53q0.423,0.75.846,1.465t0.814,1.465a5.092,5.092,0,0,1,.521,1.595,0.652,0.652,0,0,1,.684.195c0.108,0.174.228,0.37,0.358,0.586a2.208,2.208,0,0,0,.586.619,2.364,2.364,0,0,0,1.367.293,2.574,2.574,0,0,0,1.432-.423q0.651-.423,1.3-0.912a13.019,13.019,0,0,1,1.4-.911,3.443,3.443,0,0,1,1.725-.424,3.863,3.863,0,0,1,.944-1.822,8.36,8.36,0,0,0,1.205-1.628q-0.066-.716-0.1-1.335t-0.032-1.334c0-.261.01-0.521,0.032-0.782a6.108,6.108,0,0,1,.1-0.716,3.311,3.311,0,0,0-.879-0.521,2.7,2.7,0,0,0-1.009-.195,4.472,4.472,0,0,0-1.758.358,9.816,9.816,0,0,1-1.758.554,1.15,1.15,0,0,0,.13-0.521,1.4,1.4,0,0,0-.521-1.14,1.389,1.389,0,0,1-.52-1.139,12.392,12.392,0,0,1,.1-1.595,11.822,11.822,0,0,0,.1-1.53,13.13,13.13,0,0,0-.651-4.167,4.805,4.805,0,0,0,.325-1.953,15.41,15.41,0,0,0-.162-2.213,15.122,15.122,0,0,1-.163-2.214,4.535,4.535,0,0,1,.26-1.562,1.765,1.765,0,0,1-.813-0.879,2.267,2.267,0,0,1-.163-1.14,0.453,0.453,0,0,0,.195-0.032,0.46,0.46,0,0,1,.195-0.033,4.719,4.719,0,0,1,.814.065,3.611,3.611,0,0,1,.684.2,9.24,9.24,0,0,1,3.288-1.14,22.06,22.06,0,0,1,3.417-.292q0.717,0,1.433.065a12.81,12.81,0,0,1,1.367.195,7.654,7.654,0,0,1,3.255-1.009q1.822-.162,3.386-0.228a4.341,4.341,0,0,1,.911-0.033,2.137,2.137,0,0,0,.846-0.1q0.782-.195,1.5-0.423a11.668,11.668,0,0,1,1.432-.359q1.563-.258,3.125-0.423a30.7,30.7,0,0,0,3.125-.488,1.011,1.011,0,0,1,.586.488,4.752,4.752,0,0,1,.326.749,4.453,4.453,0,0,0,1.464-.814,2.341,2.341,0,0,1,1.6-.488,2.122,2.122,0,0,1,.326.032,1.9,1.9,0,0,0,.325.033,3,3,0,0,1,.228-1.725,7.156,7.156,0,0,1,.879-1.4l1.107-1.367a4.567,4.567,0,0,0,.846-1.563h-0.195Zm43.034,56.446-0.195-1.042a7.566,7.566,0,0,0-.2-1.009,2.944,2.944,0,0,0-.39-0.879,4.341,4.341,0,0,1-1.368.195,12.219,12.219,0,0,1-1.269-.065,12.647,12.647,0,0,0-1.335-.065,7.834,7.834,0,0,0-2.6.456,2.109,2.109,0,0,0-.195-1.172,1.137,1.137,0,0,1-1.042-.326,1.283,1.283,0,0,0-1.041-.39,11.444,11.444,0,0,0-1.237-1.953l-1.368-1.823q-0.651-.914-1.269-1.856a12.1,12.1,0,0,1-1.074-2.051,2.755,2.755,0,0,0,.716-1.2,2.318,2.318,0,0,1,.716-1.139,2.263,2.263,0,0,0-.749-1.237,6.437,6.437,0,0,0-1.2-.781,14.3,14.3,0,0,1-1.27-.717,3.336,3.336,0,0,1-1.009-.976,5.541,5.541,0,0,0-.26-2.084,15.954,15.954,0,0,0-.749-1.855q-0.425-.879-0.781-1.79a5.115,5.115,0,0,1-.358-1.888,3.448,3.448,0,0,1,.065-0.782,2.873,2.873,0,0,1-.489-0.683,1.617,1.617,0,0,1-.227-0.749,0.3,0.3,0,0,1,.26-0.358,0.3,0.3,0,0,0,.26-0.358,0.265,0.265,0,0,0-.065-0.195,30.2,30.2,0,0,1-1.106-4.4q-0.391-2.245-.717-4.525t-0.618-4.557q-0.293-2.279-.814-4.557v-0.261a0.657,0.657,0,0,1,.13-0.423,0.654,0.654,0,0,0,.131-0.423v-0.26a1.412,1.412,0,0,1-.489-1.27,1.6,1.6,0,0,0-.488-1.335,1.324,1.324,0,0,0,.326-0.976,1.017,1.017,0,0,1,.39-0.912,0.857,0.857,0,0,0-.553-0.325,1.14,1.14,0,0,1-.619-0.326,42.14,42.14,0,0,1-1.172-4.882,15.406,15.406,0,0,0-1.627-4.688,0.349,0.349,0,0,1,.228-0.391,0.348,0.348,0,0,0,.228-0.39v-0.2a2.427,2.427,0,0,1-1.01-1.3,14.293,14.293,0,0,1-.488-1.79q-0.195-.944-0.456-1.855a3.9,3.9,0,0,0-.846-1.563,0.988,0.988,0,0,0,.521-0.977v-0.13a6.863,6.863,0,0,1-1.074-1.562,3.872,3.872,0,0,1-.424-1.758,3.055,3.055,0,0,1,.066-0.716,3.68,3.68,0,0,1-1.335-1.432,13.364,13.364,0,0,1-.814-1.823,1.917,1.917,0,0,1-1.823-1.888,1.487,1.487,0,0,1-1.107-.131,1.959,1.959,0,0,1-.618-0.651c-0.153-.26-0.3-0.542-0.456-0.846a1.826,1.826,0,0,0-.618-0.716,1.01,1.01,0,0,1-.261-0.033,1.408,1.408,0,0,0-.325-0.032,1.965,1.965,0,0,0-1.14.293,5.441,5.441,0,0,1-1.074.553,7.406,7.406,0,0,1-.455.781l-0.521.782q0.195,2.929.39,5.794t0.2,5.794a63.124,63.124,0,0,1-.391,6.966q-0.066.653-.228,1.628a9.956,9.956,0,0,0-.163,1.562,0.3,0.3,0,0,0,.228.358,0.3,0.3,0,0,1,.228.359v0.195q-0.39,2.929-.976,5.827a33.151,33.151,0,0,0-.651,5.892,2.057,2.057,0,0,0-.261.781,0.671,0.671,0,0,1-.391.586,4.587,4.587,0,0,1,.2,1.758v0.586a5.852,5.852,0,0,0-.879,2.278q-0.23,1.3-.423,2.637t-0.489,2.572a4.921,4.921,0,0,1-1.009,2.083,16.884,16.884,0,0,1-.1,1.725,15.4,15.4,0,0,1-.326,1.921,10.382,10.382,0,0,1-.618,1.855,9.2,9.2,0,0,1-.847,1.53A38.637,38.637,0,0,1,369,192.891a62.535,62.535,0,0,1-2.539,5.957,8.356,8.356,0,0,1-1.758.2,17.58,17.58,0,0,1-2.409-.163,17.413,17.413,0,0,0-2.409-.163,3.348,3.348,0,0,0-1.5.293,3.99,3.99,0,0,0-1.042.749,10.222,10.222,0,0,0-.879,1.009,10.866,10.866,0,0,1-.944,1.074v0.521a2.9,2.9,0,0,0,.391,1.465,3.031,3.031,0,0,1,.39,1.53,1.057,1.057,0,0,1-.032.26,1.055,1.055,0,0,0-.033.261,12.747,12.747,0,0,0,3.223.651q1.725,0.129,3.288.26a5.509,5.509,0,0,1-.358,1.595,2.476,2.476,0,0,1-1.01,1.205,6.989,6.989,0,0,1-.618,2.636,5.18,5.18,0,0,1-1.725,2.051,7.979,7.979,0,0,1-.977,2.669q-0.649,1.041-1.367,2.474a16.281,16.281,0,0,0,.521,1.954,6.187,6.187,0,0,0,.846,1.692,4.033,4.033,0,0,0,1.367,1.172,4.212,4.212,0,0,0,2.019.456,3.45,3.45,0,0,0,1.92-.456,3.272,3.272,0,0,0,1.074-1.172,6.034,6.034,0,0,0,.586-1.595,14.745,14.745,0,0,1,.521-1.79,8.654,8.654,0,0,1,.977-1.888,3.508,3.508,0,0,0,.651-1.953,1.857,1.857,0,0,0-.2-0.847,4.65,4.65,0,0,0,.912-1.562q0.324-.913.618-1.856t0.651-1.79a3.17,3.17,0,0,1,1.075-1.367,2.979,2.979,0,0,1,.065-1.074,1.167,1.167,0,0,1,.651-0.814,16.768,16.768,0,0,1,5.436-1.367,54.409,54.409,0,0,0,5.631-.782,7.684,7.684,0,0,0,1.823-.39c0.131-.044.271-0.1,0.424-0.163a1.076,1.076,0,0,1,.423-0.1,2.169,2.169,0,0,1,.846.163,2.184,2.184,0,0,0,.846.163,0.712,0.712,0,0,0,.228-0.033,0.713,0.713,0,0,1,.228-0.032,6.723,6.723,0,0,0,.684-0.326,6.207,6.207,0,0,1,.683-0.325,16.148,16.148,0,0,1,6.055-1.172q0.65,0,1.2.032a7.228,7.228,0,0,1,1.14.163,3.541,3.541,0,0,0,.683,1.107q0.423,0.454.782,0.879a4.2,4.2,0,0,1,.618,1.009,3.53,3.53,0,0,1,.261,1.432,1.217,1.217,0,0,1,1.009.651,2.508,2.508,0,0,1,.162,1.237,1.282,1.282,0,0,1,.586,0,0.656,0.656,0,0,1,.326.456,5.353,5.353,0,0,0,.846,1.562q0.52,0.651,1.074,1.237t1.107,1.205a6.343,6.343,0,0,1,.944,1.4,11.841,11.841,0,0,1,2.767,1.3,5.206,5.206,0,0,0,2.832.846,3.257,3.257,0,0,0,1.432-.26,0.659,0.659,0,0,0,.586.455,3.353,3.353,0,0,1,.782.2q0.649-.2,1.269-0.326a6.128,6.128,0,0,1,1.27-.13h0.26a5.036,5.036,0,0,1,1.27-1.4,2.364,2.364,0,0,0,.879-1.595,2.863,2.863,0,0,1-.391-0.911h0Zm-25.195-16.537a2.443,2.443,0,0,1-1.107.261,2.005,2.005,0,0,1-.912-0.2,0.841,0.841,0,0,0-.683.358,1.014,1.014,0,0,1-.684.424,2.971,2.971,0,0,1-.781.032,3,3,0,0,0-.781.033,12.1,12.1,0,0,0-1.5.1c-0.521.065-1.02,0.142-1.5,0.228q-2.085.261-4.2,0.554a30.65,30.65,0,0,1-4.2.293c-0.3,0-.6-0.012-0.878-0.033s-0.576-.055-0.879-0.1q0.716-2.408,1.4-4.72a26.666,26.666,0,0,0,.944-4.785l0.977-.976q0-.456-0.033-0.912a4.214,4.214,0,0,1,.033-0.911,6.183,6.183,0,0,1,.13-0.619q0.13-.552.326-1.269t0.358-1.4q0.162-.684.228-0.879,0.649-3.06,1.172-6.152a29.223,29.223,0,0,1,1.692-6.023,5.688,5.688,0,0,1-.26-1.139,9.041,9.041,0,0,1-.065-1.074,7.89,7.89,0,0,1,.195-1.628,1.889,1.889,0,0,1,.846-1.3q0.131-3.774.489-7.519t0.683-7.52a4.341,4.341,0,0,1,1.2,1.921,20.965,20.965,0,0,1,.586,2.344,21.4,21.4,0,0,0,.553,2.278,3,3,0,0,0,1.172,1.66v0.261a0.636,0.636,0,0,1-.13.455,0.441,0.441,0,0,0-.131.326v0.13a27.5,27.5,0,0,1,1.4,4.623q0.489,2.343.781,4.72t0.489,4.785q0.195,2.409.586,4.818,0.716,4.557,1.66,9.016t1.855,8.952Q393.285,195.92,392.766,196.179Z" transform="translate(-257.188 -128.219)"/>
</svg>
